Recursive-Sans Casual Light.ufo
<glyph name="ampersand" format="2">
  <advance width="600"/>
  <unicode hex="0026"/>
  <outline>
    <contour>
      <point x="230" y="353" type="curve" smooth="yes"/>
      <point x="193" y="423"/>
      <point x="172" y="490"/>
      <point x="172" y="538" type="curve" smooth="yes"/>
      <point x="172" y="553"/>
      <point x="173" y="575"/>
      <point x="177" y="588" type="curve"/>
      <point x="197" y="630"/>
      <point x="240" y="659"/>
      <point x="311" y="659" type="curve" smooth="yes"/>
      <point x="377" y="659"/>
      <point x="422" y="641"/>
      <point x="449" y="615" type="curve"/>
      <point x="455" y="615" type="line"/>
      <point x="457" y="622"/>
      <point x="458" y="628"/>
      <point x="458" y="636" type="curve" smooth="yes"/>
      <point x="458" y="654"/>
      <point x="453" y="669"/>
      <point x="443" y="679" type="curve" smooth="yes"/>
      <point x="426" y="696"/>
      <point x="385" y="710"/>
      <point x="326" y="710" type="curve" smooth="yes"/>
      <point x="203" y="710"/>
      <point x="122" y="646"/>
      <point x="122" y="542" type="curve" smooth="yes"/>
      <point x="122" y="539" type="line" smooth="yes"/>
      <point x="122" y="478"/>
      <point x="146" y="408"/>
      <point x="183" y="338" type="curve" smooth="yes"/>
      <point x="237" y="236"/>
      <point x="313" y="136"/>
      <point x="384" y="64" type="curve" smooth="yes"/>
      <point x="434" y="14"/>
      <point x="476" y="-10"/>
      <point x="513" y="-10" type="curve" smooth="yes"/>
      <point x="531" y="-10"/>
      <point x="543" y="-6"/>
      <point x="551" y="0" type="curve" smooth="yes"/>
      <point x="559" y="6"/>
      <point x="566" y="17"/>
      <point x="566" y="32" type="curve" smooth="yes"/>
      <point x="566" y="42"/>
      <point x="565" y="52"/>
      <point x="563" y="60" type="curve"/>
      <point x="557" y="60" type="line"/>
      <point x="548" y="46"/>
      <point x="537" y="40"/>
      <point x="517" y="40" type="curve" smooth="yes"/>
      <point x="493" y="40"/>
      <point x="464" y="56"/>
      <point x="418" y="101" type="curve" smooth="yes"/>
      <point x="340" y="177"/>
      <point x="274" y="269"/>
    </contour>
    <contour>
      <point x="215" y="-10" type="curve" smooth="yes"/>
      <point x="292" y="-10"/>
      <point x="343" y="16"/>
      <point x="378" y="64" type="curve"/>
      <point x="404" y="64" type="line"/>
      <point x="367" y="108" type="line"/>
      <point x="327" y="55"/>
      <point x="287" y="38"/>
      <point x="216" y="38" type="curve" smooth="yes"/>
      <point x="138" y="38"/>
      <point x="92" y="90"/>
      <point x="92" y="163" type="curve" smooth="yes"/>
      <point x="92" y="166" type="line" smooth="yes"/>
      <point x="92" y="249"/>
      <point x="147" y="290"/>
      <point x="221" y="309" type="curve"/>
      <point x="188" y="354" type="line"/>
      <point x="179" y="337" type="line"/>
      <point x="100" y="315"/>
      <point x="42" y="258"/>
      <point x="42" y="163" type="curve" smooth="yes"/>
      <point x="42" y="160" type="line" smooth="yes"/>
      <point x="42" y="63"/>
      <point x="100" y="-10"/>
    </contour>
    <contour>
      <point x="445" y="378" type="curve"/>
      <point x="445" y="367"/>
      <point x="445" y="361"/>
      <point x="445" y="350" type="curve" smooth="yes"/>
      <point x="445" y="259"/>
      <point x="426" y="192"/>
      <point x="380" y="125" type="curve"/>
      <point x="414" y="77" type="line"/>
      <point x="414" y="111" type="line"/>
      <point x="469" y="193"/>
      <point x="498" y="262"/>
      <point x="498" y="348" type="curve" smooth="yes"/>
      <point x="498" y="352" type="line" smooth="yes"/>
      <point x="498" y="372"/>
      <point x="485" y="378"/>
      <point x="451" y="378" type="curve" smooth="yes"/>
      <point x="449" y="378"/>
      <point x="447" y="378"/>
    </contour>
  </outline>
</glyph>
<glyph name="three" format="2">
  <advance width="600"/>
  <unicode hex="0033"/>
  <outline>
    <contour>
      <point x="300" y="719" type="curve" smooth="yes"/>
      <point x="213" y="719"/>
      <point x="147" y="688"/>
      <point x="114" y="655" type="curve" smooth="yes"/>
      <point x="93" y="634"/>
      <point x="87" y="622"/>
      <point x="87" y="603" type="curve" smooth="yes"/>
      <point x="87" y="589"/>
      <point x="88" y="579"/>
      <point x="93" y="566" type="curve"/>
      <point x="99" y="566" type="line"/>
      <point x="143" y="634"/>
      <point x="202" y="669"/>
      <point x="300" y="669" type="curve" smooth="yes"/>
      <point x="416" y="669"/>
      <point x="468" y="609"/>
      <point x="472" y="524" type="curve"/>
      <point x="472" y="520" type="line"/>
      <point x="456" y="407"/>
      <point x="338" y="340"/>
      <point x="176" y="340" type="curve"/>
      <point x="174" y="334"/>
      <point x="173" y="326"/>
      <point x="173" y="317" type="curve" smooth="yes"/>
      <point x="173" y="298"/>
      <point x="180" y="290"/>
      <point x="198" y="290" type="curve" smooth="yes"/>
      <point x="355" y="290"/>
      <point x="473" y="247"/>
      <point x="483" y="153" type="curve"/>
      <point x="483" y="149" type="line"/>
      <point x="469" y="77"/>
      <point x="411" y="30"/>
      <point x="300" y="30" type="curve" smooth="yes"/>
      <point x="197" y="30"/>
      <point x="134" y="65"/>
      <point x="87" y="133" type="curve"/>
      <point x="81" y="133" type="line"/>
      <point x="78" y="122"/>
      <point x="77" y="111"/>
      <point x="77" y="96" type="curve" smooth="yes"/>
      <point x="77" y="80"/>
      <point x="80" y="64"/>
      <point x="97" y="47" type="curve" smooth="yes"/>
      <point x="139" y="5"/>
      <point x="208" y="-20"/>
      <point x="300" y="-20" type="curve" smooth="yes"/>
      <point x="436" y="-20"/>
      <point x="524" y="49"/>
      <point x="524" y="153" type="curve" smooth="yes"/>
      <point x="524" y="159" type="line" smooth="yes"/>
      <point x="524" y="235"/>
      <point x="467" y="293"/>
      <point x="302" y="322" type="curve"/>
      <point x="331" y="297" type="line"/>
      <point x="331" y="342" type="line"/>
      <point x="303" y="313" type="line"/>
      <point x="452" y="359"/>
      <point x="514" y="439"/>
      <point x="514" y="540" type="curve" smooth="yes"/>
      <point x="514" y="546" type="line" smooth="yes"/>
      <point x="514" y="650"/>
      <point x="430" y="719"/>
    </contour>
  </outline>
</glyph>
<glyph name="P" format="2">
  <advance width="600"/>
  <unicode hex="0050"/>
  <outline>
    <contour>
      <point x="157" y="-2" type="curve"/>
      <point x="151" y="33"/>
      <point x="150" y="68"/>
      <point x="150" y="105" type="curve" smooth="yes"/>
      <point x="150" y="275"/>
      <point x="150" y="441"/>
      <point x="150" y="597" type="curve"/>
      <point x="150" y="621"/>
      <point x="148" y="639"/>
      <point x="136" y="654" type="curve"/>
      <point x="150" y="684" type="line"/>
      <point x="100" y="684" type="line"/>
      <point x="100" y="473"/>
      <point x="100" y="266"/>
      <point x="100" y="55" type="curve"/>
      <point x="100" y="13"/>
      <point x="110" y="-5"/>
      <point x="140" y="-5" type="curve" smooth="yes"/>
      <point x="146" y="-5"/>
      <point x="151" y="-4"/>
    </contour>
    <contour>
      <point x="50" y="700" type="curve"/>
      <point x="50" y="697"/>
      <point x="50" y="693"/>
      <point x="50" y="690" type="curve" smooth="yes"/>
      <point x="50" y="665"/>
      <point x="57" y="650"/>
      <point x="77" y="650" type="curve"/>
      <point x="96" y="650"/>
      <point x="185" y="670"/>
      <point x="278" y="670" type="curve" smooth="yes"/>
      <point x="359" y="670"/>
      <point x="402" y="657"/>
      <point x="447" y="623" type="curve"/>
      <point x="467" y="589"/>
      <point x="475" y="547"/>
      <point x="475" y="502" type="curve" smooth="yes"/>
      <point x="475" y="487" type="line" smooth="yes"/>
      <point x="475" y="343"/>
      <point x="343" y="235"/>
      <point x="199" y="235" type="curve"/>
      <point x="172" y="235"/>
      <point x="157" y="237"/>
      <point x="138" y="244" type="curve"/>
      <point x="138" y="195" type="line"/>
      <point x="156" y="202" type="line"/>
      <point x="167" y="191"/>
      <point x="180" y="185"/>
      <point x="206" y="185" type="curve"/>
      <point x="366" y="185"/>
      <point x="525" y="316"/>
      <point x="525" y="483" type="curve" smooth="yes"/>
      <point x="525" y="507" type="line" smooth="yes"/>
      <point x="525" y="641"/>
      <point x="459" y="720"/>
      <point x="275" y="720" type="curve"/>
      <point x="216" y="720"/>
      <point x="147" y="716"/>
    </contour>
  </outline>
</glyph>
<glyph name="X" format="2">
  <advance width="600"/>
  <unicode hex="0058"/>
  <outline>
    <contour>
      <point x="535" y="-10" type="curve" smooth="yes"/>
      <point x="551" y="-10"/>
      <point x="559" y="-7"/>
      <point x="567" y="0" type="curve"/>
      <point x="481" y="73"/>
      <point x="386" y="191"/>
      <point x="303" y="315" type="curve" smooth="yes"/>
      <point x="287" y="338" type="line"/>
      <point x="201" y="469"/>
      <point x="136" y="603"/>
      <point x="102" y="687" type="curve" smooth="yes"/>
      <point x="96" y="702"/>
      <point x="86" y="706"/>
      <point x="71" y="706" type="curve" smooth="yes"/>
      <point x="58" y="706"/>
      <point x="46" y="704"/>
      <point x="35" y="700" type="curve"/>
      <point x="84" y="581"/>
      <point x="161" y="435"/>
      <point x="247" y="304" type="curve" smooth="yes"/>
      <point x="260" y="285" type="line"/>
      <point x="340" y="167"/>
      <point x="421" y="62"/>
      <point x="484" y="9" type="curve" smooth="yes"/>
      <point x="497" y="-2"/>
      <point x="513" y="-10"/>
    </contour>
    <contour>
      <point x="525" y="705" type="curve" smooth="yes"/>
      <point x="516" y="705"/>
      <point x="508" y="704"/>
      <point x="500" y="702" type="curve"/>
      <point x="445" y="565"/>
      <point x="388" y="467"/>
      <point x="290" y="343" type="curve"/>
      <point x="271" y="343" type="line"/>
      <point x="304" y="301" type="line"/>
      <point x="418" y="429"/>
      <point x="484" y="527"/>
      <point x="547" y="675" type="curve" smooth="yes"/>
      <point x="554" y="693"/>
      <point x="549" y="705"/>
    </contour>
    <contour>
      <point x="59" y="-10" type="curve" smooth="yes"/>
      <point x="70" y="-10"/>
      <point x="79" y="-7"/>
      <point x="84" y="-3" type="curve"/>
      <point x="126" y="97"/>
      <point x="191" y="197"/>
      <point x="259" y="278" type="curve"/>
      <point x="274" y="278" type="line"/>
      <point x="250" y="326" type="line"/>
      <point x="158" y="232"/>
      <point x="86" y="128"/>
      <point x="37" y="23" type="curve" smooth="yes"/>
      <point x="28" y="3"/>
      <point x="35" y="-10"/>
    </contour>
  </outline>
</glyph>
<glyph name="f" format="2">
  <advance width="400"/>
  <unicode hex="0066"/>
  <outline>
    <contour>
      <point x="35" y="526" type="line"/>
      <point x="35" y="523"/>
      <point x="35" y="519"/>
      <point x="35" y="516" type="curve" smooth="yes"/>
      <point x="35" y="494"/>
      <point x="43" y="476"/>
      <point x="58" y="476" type="curve" smooth="yes"/>
      <point x="377" y="476" type="line"/>
      <point x="377" y="479"/>
      <point x="377" y="483"/>
      <point x="377" y="486" type="curve" smooth="yes"/>
      <point x="377" y="508"/>
      <point x="372" y="526"/>
      <point x="354" y="526" type="curve" smooth="yes"/>
    </contour>
    <contour>
      <point x="170" y="60" type="curve" smooth="yes"/>
      <point x="170" y="229"/>
      <point x="170" y="399"/>
      <point x="170" y="568" type="curve" smooth="yes"/>
      <point x="170" y="613"/>
      <point x="177" y="649"/>
      <point x="192" y="674" type="curve"/>
      <point x="220" y="700"/>
      <point x="250" y="708"/>
      <point x="292" y="708" type="curve" smooth="yes"/>
      <point x="339" y="708"/>
      <point x="370" y="701"/>
      <point x="404" y="681" type="curve"/>
      <point x="408" y="681" type="line"/>
      <point x="410" y="686"/>
      <point x="411" y="693"/>
      <point x="411" y="700" type="curve" smooth="yes"/>
      <point x="411" y="716"/>
      <point x="406" y="728"/>
      <point x="401" y="733" type="curve" smooth="yes"/>
      <point x="391" y="743"/>
      <point x="359" y="758"/>
      <point x="298" y="758" type="curve" smooth="yes"/>
      <point x="189" y="758"/>
      <point x="120" y="690"/>
      <point x="120" y="580" type="curve" smooth="yes"/>
      <point x="120" y="419"/>
      <point x="120" y="257"/>
      <point x="120" y="96" type="curve" smooth="yes"/>
      <point x="120" y="48"/>
      <point x="118" y="32"/>
      <point x="111" y="0" type="curve"/>
      <point x="115" y="-2"/>
      <point x="123" y="-4"/>
      <point x="130" y="-4" type="curve" smooth="yes"/>
      <point x="153" y="-4"/>
      <point x="170" y="12"/>
    </contour>
  </outline>
</glyph>
<glyph name="z" format="2">
  <advance width="550"/>
  <unicode hex="007A"/>
  <anchor x="273" y="537" name="top"/>
  <anchor x="274" y="0" name="bottom"/>
  <outline>
    <contour>
      <point x="73" y="526" type="line"/>
      <point x="73" y="523"/>
      <point x="73" y="519"/>
      <point x="73" y="516" type="curve"/>
      <point x="73" y="493"/>
      <point x="78" y="476"/>
      <point x="96" y="476" type="curve" smooth="yes"/>
      <point x="420" y="476" type="line"/>
      <point x="423" y="471" type="line"/>
      <point x="413" y="456"/>
      <point x="403" y="443"/>
      <point x="394" y="427" type="curve" smooth="yes"/>
      <point x="320" y="295"/>
      <point x="193" y="145"/>
      <point x="73" y="43" type="curve"/>
      <point x="73" y="40" type="line" smooth="yes"/>
      <point x="73" y="17"/>
      <point x="78" y="0"/>
      <point x="96" y="0" type="curve" smooth="yes"/>
      <point x="473" y="0" type="line"/>
      <point x="473" y="3"/>
      <point x="473" y="7"/>
      <point x="473" y="10" type="curve" smooth="yes"/>
      <point x="473" y="33"/>
      <point x="468" y="50"/>
      <point x="450" y="50" type="curve" smooth="yes"/>
      <point x="149" y="50" type="line"/>
      <point x="147" y="55" type="line"/>
      <point x="160" y="63"/>
      <point x="177" y="77"/>
      <point x="190" y="89" type="curve" smooth="yes"/>
      <point x="357" y="241"/>
      <point x="473" y="457"/>
      <point x="473" y="486" type="curve" smooth="yes"/>
      <point x="473" y="488" type="line" smooth="yes"/>
      <point x="473" y="513"/>
      <point x="463" y="526"/>
      <point x="450" y="526" type="curve" smooth="yes"/>
    </contour>
  </outline>
</glyph>
<glyph name="bar" format="2">
  <advance width="300"/>
  <unicode hex="007C"/>
  <outline>
    <contour>
      <point x="117" y="760" type="curve"/>
      <point x="123" y="725"/>
      <point x="124" y="690"/>
      <point x="124" y="653" type="curve" smooth="yes"/>
      <point x="124" y="390"/>
      <point x="124" y="126"/>
      <point x="124" y="-137" type="curve" smooth="yes"/>
      <point x="124" y="-155"/>
      <point x="142" y="-160"/>
      <point x="164" y="-160" type="curve" smooth="yes"/>
      <point x="167" y="-160"/>
      <point x="171" y="-160"/>
      <point x="174" y="-160" type="curve"/>
      <point x="174" y="127"/>
      <point x="174" y="416"/>
      <point x="174" y="703" type="curve" smooth="yes"/>
      <point x="174" y="740"/>
      <point x="163" y="763"/>
      <point x="134" y="763" type="curve" smooth="yes"/>
      <point x="128" y="763"/>
      <point x="123" y="762"/>
    </contour>
  </outline>
</glyph>
<glyph name="brokenbar" format="2">
  <advance width="350"/>
  <unicode hex="00A6"/>
  <outline>
    <contour>
      <point x="142" y="760" type="curve"/>
      <point x="148" y="725"/>
      <point x="149" y="690"/>
      <point x="149" y="653" type="curve" smooth="yes"/>
      <point x="149" y="393" type="line" smooth="yes"/>
      <point x="149" y="375"/>
      <point x="167" y="370"/>
      <point x="189" y="370" type="curve" smooth="yes"/>
      <point x="192" y="370"/>
      <point x="196" y="370"/>
      <point x="199" y="370" type="curve"/>
      <point x="199" y="703" type="line" smooth="yes"/>
      <point x="199" y="725"/>
      <point x="197" y="743"/>
      <point x="185" y="755" type="curve" smooth="yes"/>
      <point x="180" y="760"/>
      <point x="173" y="763"/>
      <point x="159" y="763" type="curve" smooth="yes"/>
      <point x="153" y="763"/>
      <point x="148" y="762"/>
    </contour>
    <contour>
      <point x="149" y="230" type="curve"/>
      <point x="149" y="-137" type="line"/>
      <point x="149" y="-155"/>
      <point x="167" y="-160"/>
      <point x="189" y="-160" type="curve" smooth="yes"/>
      <point x="192" y="-160"/>
      <point x="196" y="-160"/>
      <point x="199" y="-160" type="curve"/>
      <point x="199" y="196" type="line" smooth="yes"/>
      <point x="199" y="219"/>
      <point x="193" y="233"/>
      <point x="163" y="233" type="curve" smooth="yes"/>
      <point x="157" y="233"/>
      <point x="152" y="232"/>
    </contour>
  </outline>
</glyph>
<glyph name="Eng" format="2">
  <advance width="700"/>
  <unicode hex="014A"/>
  <outline>
    <contour>
      <point x="361" y="-200" type="curve" smooth="yes"/>
      <point x="311" y="-200"/>
      <point x="282" y="-193"/>
      <point x="238" y="-165" type="curve"/>
      <point x="232" y="-165" type="line"/>
      <point x="231" y="-170"/>
      <point x="230" y="-179"/>
      <point x="230" y="-186" type="curve" smooth="yes"/>
      <point x="230" y="-200"/>
      <point x="233" y="-211"/>
      <point x="240" y="-218" type="curve" smooth="yes"/>
      <point x="258" y="-236"/>
      <point x="305" y="-250"/>
      <point x="360" y="-250" type="curve" smooth="yes"/>
      <point x="530" y="-250"/>
      <point x="590" y="-129"/>
      <point x="590" y="-7" type="curve"/>
      <point x="590" y="11"/>
      <point x="566" y="20"/>
      <point x="541" y="20" type="curve"/>
      <point x="541" y="-130"/>
      <point x="482" y="-200"/>
    </contour>
    <component base="N" xOffset="30"/>
  </outline>
</glyph>
<glyph name="tbar" format="2">
  <advance width="500"/>
  <unicode hex="0167"/>
  <outline>
    <contour>
      <point x="45" y="325" type="line"/>
      <point x="45" y="322"/>
      <point x="45" y="318"/>
      <point x="45" y="315" type="curve" smooth="yes"/>
      <point x="45" y="291"/>
      <point x="51" y="275"/>
      <point x="68" y="275" type="curve" smooth="yes"/>
      <point x="425" y="275" type="line"/>
      <point x="425" y="278"/>
      <point x="425" y="282"/>
      <point x="425" y="285" type="curve" smooth="yes"/>
      <point x="425" y="307"/>
      <point x="420" y="325"/>
      <point x="402" y="325" type="curve" smooth="yes"/>
    </contour>
    <component base="t"/>
  </outline>
</glyph>
<glyph name="dzcaron" format="2">
  <advance width="1150"/>
  <unicode hex="01C6"/>
  <outline>
    <contour>
      <point x="293" y="536" type="curve" smooth="yes"/>
      <point x="156" y="536"/>
      <point x="75" y="437"/>
      <point x="75" y="212" type="curve" smooth="yes"/>
      <point x="75" y="195" type="line" smooth="yes"/>
      <point x="75" y="68"/>
      <point x="135" y="-10"/>
      <point x="234" y="-10" type="curve" smooth="yes"/>
      <point x="314" y="-10"/>
      <point x="389" y="56"/>
      <point x="433" y="153" type="curve"/>
      <point x="447" y="153" type="line"/>
      <point x="447" y="268" type="line"/>
      <point x="377" y="98"/>
      <point x="306" y="40"/>
      <point x="229" y="40" type="curve" smooth="yes"/>
      <point x="189" y="40"/>
      <point x="157" y="58"/>
      <point x="135" y="96" type="curve"/>
      <point x="127" y="133"/>
      <point x="125" y="167"/>
      <point x="125" y="202" type="curve" smooth="yes"/>
      <point x="125" y="211" type="line" smooth="yes"/>
      <point x="125" y="393"/>
      <point x="177" y="486"/>
      <point x="287" y="486" type="curve" smooth="yes"/>
      <point x="353" y="486"/>
      <point x="392" y="464"/>
      <point x="447" y="398" type="curve"/>
      <point x="447" y="469" type="line"/>
      <point x="433" y="469" type="line"/>
      <point x="402" y="509"/>
      <point x="348" y="536"/>
    </contour>
    <contour>
      <point x="445" y="758" type="curve" smooth="yes"/>
      <point x="440" y="758"/>
      <point x="434" y="757"/>
      <point x="429" y="755" type="curve"/>
      <point x="438" y="728"/>
      <point x="440" y="715"/>
      <point x="440" y="668" type="curve" smooth="yes"/>
      <point x="440" y="469"/>
      <point x="440" y="268"/>
      <point x="440" y="69" type="curve" smooth="yes"/>
      <point x="440" y="18"/>
      <point x="461" y="-4"/>
      <point x="485" y="-4" type="curve" smooth="yes"/>
      <point x="490" y="-4"/>
      <point x="496" y="-3"/>
      <point x="501" y="-1" type="curve"/>
      <point x="492" y="26"/>
      <point x="490" y="39"/>
      <point x="490" y="86" type="curve" smooth="yes"/>
      <point x="490" y="285"/>
      <point x="490" y="486"/>
      <point x="490" y="685" type="curve" smooth="yes"/>
      <point x="490" y="738"/>
      <point x="469" y="758"/>
    </contour>
    <contour>
      <point x="653" y="526" type="line"/>
      <point x="653" y="523"/>
      <point x="653" y="519"/>
      <point x="653" y="516" type="curve"/>
      <point x="653" y="493"/>
      <point x="658" y="476"/>
      <point x="676" y="476" type="curve" smooth="yes"/>
      <point x="996" y="476" type="line"/>
      <point x="999" y="471" type="line"/>
      <point x="986" y="443"/>
      <point x="970" y="415"/>
      <point x="951" y="386" type="curve" smooth="yes"/>
      <point x="876" y="265"/>
      <point x="762" y="136"/>
      <point x="653" y="43" type="curve"/>
      <point x="653" y="40" type="line" smooth="yes"/>
      <point x="653" y="17"/>
      <point x="658" y="0"/>
      <point x="676" y="0" type="curve" smooth="yes"/>
      <point x="1053" y="0" type="line"/>
      <point x="1053" y="3"/>
      <point x="1053" y="7"/>
      <point x="1053" y="10" type="curve" smooth="yes"/>
      <point x="1053" y="33"/>
      <point x="1048" y="50"/>
      <point x="1030" y="50" type="curve" smooth="yes"/>
      <point x="732" y="50" type="line"/>
      <point x="730" y="55" type="line"/>
      <point x="750" y="71"/>
      <point x="770" y="86"/>
      <point x="789" y="104" type="curve" smooth="yes"/>
      <point x="945" y="255"/>
      <point x="1053" y="458"/>
      <point x="1053" y="486" type="curve" smooth="yes"/>
      <point x="1053" y="488" type="line" smooth="yes"/>
      <point x="1053" y="513"/>
      <point x="1043" y="526"/>
      <point x="1030" y="526" type="curve" smooth="yes"/>
    </contour>
    <contour>
      <point x="861" y="641" type="curve"/>
      <point x="919" y="663"/>
      <point x="969" y="706"/>
      <point x="1008" y="752" type="curve" smooth="yes"/>
      <point x="1030" y="778"/>
      <point x="1037" y="796"/>
      <point x="1037" y="804" type="curve" smooth="yes"/>
      <point x="1037" y="815"/>
      <point x="1031" y="822"/>
      <point x="1011" y="822" type="curve" smooth="yes"/>
      <point x="1005" y="822" type="line"/>
      <point x="974" y="769"/>
      <point x="916" y="717"/>
      <point x="829" y="673" type="curve"/>
      <point x="886" y="686" type="line"/>
      <point x="821" y="686" type="line"/>
      <point x="879" y="674" type="line"/>
      <point x="800" y="711"/>
      <point x="759" y="748"/>
      <point x="722" y="793" type="curve" smooth="yes"/>
      <point x="705" y="814"/>
      <point x="699" y="819"/>
      <point x="687" y="819" type="curve" smooth="yes"/>
      <point x="675" y="819"/>
      <point x="667" y="817"/>
      <point x="658" y="810" type="curve"/>
      <point x="695" y="744"/>
      <point x="757" y="693"/>
      <point x="797" y="666" type="curve" smooth="yes"/>
      <point x="832" y="642"/>
      <point x="843" y="641"/>
      <point x="852" y="641" type="curve" smooth="yes"/>
      <point x="855" y="641"/>
      <point x="858" y="641"/>
    </contour>
  </outline>
</glyph>
<glyph name="Lj" format="2">
  <advance width="850"/>
  <unicode hex="01C8"/>
  <outline>
    <contour>
      <point x="143" y="0" type="curve" smooth="yes"/>
      <point x="469" y="0" type="line"/>
      <point x="469" y="30"/>
      <point x="463" y="50"/>
      <point x="446" y="50" type="curve" smooth="yes"/>
      <point x="157" y="50" type="line"/>
      <point x="157" y="250"/>
      <point x="157" y="446"/>
      <point x="157" y="646" type="curve" smooth="yes"/>
      <point x="157" y="671"/>
      <point x="155" y="706"/>
      <point x="119" y="706" type="curve" smooth="yes"/>
      <point x="111" y="706"/>
      <point x="106" y="705"/>
      <point x="100" y="703" type="curve"/>
      <point x="106" y="668"/>
      <point x="107" y="648"/>
      <point x="107" y="600" type="curve" smooth="yes"/>
      <point x="107" y="414"/>
      <point x="107" y="226"/>
      <point x="107" y="53" type="curve" smooth="yes"/>
      <point x="107" y="24"/>
      <point x="121" y="0"/>
    </contour>
    <contour>
      <point x="453" y="185" type="curve"/>
      <point x="453" y="96"/>
      <point x="426" y="14"/>
      <point x="425" y="-4" type="curve" smooth="yes"/>
      <point x="424" y="-22"/>
      <point x="440" y="-27"/>
      <point x="467" y="-27" type="curve"/>
      <point x="489" y="27"/>
      <point x="503" y="102"/>
      <point x="503" y="160" type="curve" smooth="yes"/>
      <point x="503" y="178"/>
      <point x="485" y="185"/>
      <point x="463" y="185" type="curve" smooth="yes"/>
      <point x="460" y="185"/>
      <point x="456" y="185"/>
    </contour>
    <contour>
      <point x="690" y="536" type="curve" smooth="yes"/>
      <point x="639" y="536"/>
      <point x="587" y="530"/>
      <point x="543" y="526" type="curve"/>
      <point x="541" y="521"/>
      <point x="540" y="514"/>
      <point x="540" y="506" type="curve" smooth="yes"/>
      <point x="540" y="484"/>
      <point x="548" y="476"/>
      <point x="563" y="476" type="curve" smooth="yes"/>
      <point x="587" y="476"/>
      <point x="634" y="484"/>
      <point x="684" y="488" type="curve"/>
      <point x="690" y="485" type="line"/>
      <point x="690" y="312"/>
      <point x="690" y="179"/>
      <point x="690" y="6" type="curve" smooth="yes"/>
      <point x="690" y="-60"/>
      <point x="681" y="-101"/>
      <point x="650" y="-138" type="curve"/>
      <point x="632" y="-152"/>
      <point x="610" y="-160"/>
      <point x="585" y="-160" type="curve" smooth="yes"/>
      <point x="550" y="-160"/>
      <point x="534" y="-154"/>
      <point x="509" y="-137" type="curve"/>
      <point x="504" y="-137" type="line"/>
      <point x="501" y="-143"/>
      <point x="500" y="-150"/>
      <point x="500" y="-160" type="curve" smooth="yes"/>
      <point x="500" y="-172"/>
      <point x="503" y="-183"/>
      <point x="511" y="-191" type="curve" smooth="yes"/>
      <point x="525" y="-205"/>
      <point x="552" y="-210"/>
      <point x="580" y="-210" type="curve" smooth="yes"/>
      <point x="691" y="-210"/>
      <point x="740" y="-128"/>
      <point x="740" y="-2" type="curve" smooth="yes"/>
      <point x="740" y="183"/>
      <point x="740" y="328"/>
      <point x="740" y="513" type="curve" smooth="yes"/>
      <point x="740" y="531"/>
      <point x="719" y="536"/>
    </contour>
    <contour>
      <point x="675" y="754" type="curve"/>
      <point x="675" y="702" type="line" smooth="yes"/>
      <point x="675" y="680"/>
      <point x="694" y="667"/>
      <point x="725" y="667" type="curve" smooth="yes"/>
      <point x="737" y="667"/>
      <point x="747" y="668"/>
      <point x="755" y="670" type="curve"/>
      <point x="755" y="722" type="line" smooth="yes"/>
      <point x="755" y="744"/>
      <point x="737" y="757"/>
      <point x="705" y="757" type="curve" smooth="yes"/>
      <point x="693" y="757"/>
      <point x="683" y="756"/>
    </contour>
  </outline>
</glyph>
<glyph name="ringhalfrightmod" format="2">
  <advance width="200"/>
  <unicode hex="02BE"/>
  <outline>
    <contour>
      <point x="43" y="606" type="curve" smooth="yes"/>
      <point x="103" y="606"/>
      <point x="153" y="650"/>
      <point x="153" y="712" type="curve" smooth="yes"/>
      <point x="153" y="718" type="line" smooth="yes"/>
      <point x="153" y="777"/>
      <point x="107" y="820"/>
      <point x="43" y="820" type="curve"/>
      <point x="43" y="810"/>
      <point x="43" y="801"/>
      <point x="43" y="789" type="curve" smooth="yes"/>
      <point x="43" y="783"/>
      <point x="44" y="781"/>
      <point x="50" y="781" type="curve" smooth="yes"/>
      <point x="60" y="781"/>
      <point x="72" y="778"/>
      <point x="81" y="773" type="curve"/>
      <point x="102" y="761"/>
      <point x="109" y="743"/>
      <point x="109" y="717" type="curve" smooth="yes"/>
      <point x="109" y="711" type="line" smooth="yes"/>
      <point x="109" y="669"/>
      <point x="81" y="645"/>
      <point x="35" y="645" type="curve"/>
      <point x="35" y="635"/>
      <point x="35" y="625"/>
      <point x="35" y="615" type="curve" smooth="yes"/>
      <point x="35" y="608"/>
      <point x="37" y="606"/>
    </contour>
  </outline>
</glyph>
<glyph name="verticallinemod" format="2">
  <advance width="200"/>
  <unicode hex="02C8"/>
  <outline>
    <contour>
      <point x="125" y="438" type="curve"/>
      <point x="125" y="725" type="line" smooth="yes"/>
      <point x="125" y="746"/>
      <point x="119" y="754"/>
      <point x="100" y="754" type="curve" smooth="yes"/>
      <point x="88" y="754"/>
      <point x="81" y="753"/>
      <point x="73" y="751" type="curve"/>
      <point x="74" y="739"/>
      <point x="75" y="729"/>
      <point x="75" y="705" type="curve" smooth="yes"/>
      <point x="75" y="471" type="line" smooth="yes"/>
      <point x="75" y="447"/>
      <point x="81" y="438"/>
      <point x="102" y="438" type="curve" smooth="yes"/>
      <point x="114" y="438"/>
      <point x="122" y="438"/>
    </contour>
  </outline>
</glyph>
<glyph name="horncomb" format="2">
  <unicode hex="031B"/>
  <anchor x="0" y="526" name="_horn"/>
  <outline>
    <contour>
      <point x="64" y="681" type="curve"/>
      <point x="76" y="660"/>
      <point x="82" y="639"/>
      <point x="82" y="611" type="curve" smooth="yes"/>
      <point x="82" y="572"/>
      <point x="68" y="553"/>
      <point x="51" y="541" type="curve" smooth="yes"/>
      <point x="35" y="530"/>
      <point x="19" y="527"/>
      <point x="1" y="527" type="curve"/>
      <point x="1" y="514"/>
      <point x="1" y="509"/>
      <point x="1" y="500" type="curve"/>
      <point x="7" y="500"/>
      <point x="13" y="500"/>
      <point x="19" y="500" type="curve" smooth="yes"/>
      <point x="38" y="500"/>
      <point x="66" y="506"/>
      <point x="89" y="524" type="curve" smooth="yes"/>
      <point x="116" y="545"/>
      <point x="133" y="577"/>
      <point x="133" y="631" type="curve" smooth="yes"/>
      <point x="133" y="671"/>
      <point x="119" y="691"/>
      <point x="94" y="691" type="curve" smooth="yes"/>
      <point x="82" y="691"/>
      <point x="73" y="688"/>
    </contour>
  </outline>
</glyph>
<glyph name="pi" format="2">
  <advance width="600"/>
  <unicode hex="03C0"/>
  <outline>
    <contour>
      <point x="75" y="526" type="line"/>
      <point x="75" y="523"/>
      <point x="75" y="519"/>
      <point x="75" y="516" type="curve" smooth="yes"/>
      <point x="75" y="494"/>
      <point x="80" y="476"/>
      <point x="98" y="476" type="curve" smooth="yes"/>
      <point x="525" y="476" type="line"/>
      <point x="525" y="479"/>
      <point x="525" y="483"/>
      <point x="525" y="486" type="curve" smooth="yes"/>
      <point x="525" y="508"/>
      <point x="520" y="526"/>
      <point x="502" y="526" type="curve" smooth="yes"/>
    </contour>
    <contour>
      <point x="150" y="500" type="line"/>
      <point x="150" y="339"/>
      <point x="150" y="179"/>
      <point x="150" y="18" type="curve" smooth="yes"/>
      <point x="150" y="0"/>
      <point x="168" y="-5"/>
      <point x="190" y="-5" type="curve" smooth="yes"/>
      <point x="193" y="-5"/>
      <point x="197" y="-5"/>
      <point x="200" y="-5" type="curve"/>
      <point x="200" y="133"/>
      <point x="200" y="272"/>
      <point x="200" y="410" type="curve" smooth="yes"/>
      <point x="200" y="443"/>
      <point x="197" y="456"/>
      <point x="188" y="470" type="curve"/>
      <point x="188" y="500" type="line"/>
    </contour>
    <contour>
      <point x="519" y="48" type="curve"/>
      <point x="513" y="48" type="line"/>
      <point x="503" y="41"/>
      <point x="494" y="38"/>
      <point x="481" y="38" type="curve" smooth="yes"/>
      <point x="470" y="38"/>
      <point x="461" y="41"/>
      <point x="453" y="50" type="curve"/>
      <point x="451" y="58"/>
      <point x="450" y="69"/>
      <point x="450" y="85" type="curve" smooth="yes"/>
      <point x="450" y="193"/>
      <point x="450" y="300"/>
      <point x="450" y="408" type="curve" smooth="yes"/>
      <point x="450" y="437"/>
      <point x="448" y="452"/>
      <point x="437" y="470" type="curve"/>
      <point x="437" y="502" type="line"/>
      <point x="400" y="502" type="line"/>
      <point x="400" y="361"/>
      <point x="400" y="219"/>
      <point x="400" y="78" type="curve" smooth="yes"/>
      <point x="400" y="26"/>
      <point x="429" y="-10"/>
      <point x="475" y="-10" type="curve" smooth="yes"/>
      <point x="478" y="-10" type="line" smooth="yes"/>
      <point x="504" y="-10"/>
      <point x="519" y="10"/>
      <point x="519" y="41" type="curve"/>
      <point x="519" y="43"/>
      <point x="519" y="46"/>
    </contour>
  </outline>
</glyph>
<glyph name="dagger" format="2">
  <advance width="600"/>
  <unicode hex="2020"/>
  <outline>
    <contour>
      <point x="336" y="-150" type="curve"/>
      <point x="326" y="-102"/>
      <point x="324" y="-61"/>
      <point x="324" y="1" type="curve" smooth="yes"/>
      <point x="324" y="460" type="line"/>
      <point x="324" y="670" type="line" smooth="yes"/>
      <point x="324" y="701"/>
      <point x="313" y="710"/>
      <point x="289" y="710" type="curve" smooth="yes"/>
      <point x="280" y="710"/>
      <point x="273" y="709"/>
      <point x="267" y="707" type="curve"/>
      <point x="273" y="672"/>
      <point x="274" y="637"/>
      <point x="274" y="600" type="curve" smooth="yes"/>
      <point x="274" y="283" type="line" smooth="yes"/>
      <point x="274" y="-85"/>
      <point x="286" y="-127"/>
      <point x="304" y="-145" type="curve" smooth="yes"/>
      <point x="310" y="-151"/>
      <point x="315" y="-153"/>
      <point x="322" y="-153" type="curve" smooth="yes"/>
      <point x="327" y="-153"/>
      <point x="332" y="-152"/>
    </contour>
    <contour>
      <point x="60" y="450" type="curve"/>
      <point x="540" y="450" type="line"/>
      <point x="540" y="453"/>
      <point x="540" y="457"/>
      <point x="540" y="460" type="curve" smooth="yes"/>
      <point x="540" y="482"/>
      <point x="535" y="500"/>
      <point x="517" y="500" type="curve" smooth="yes"/>
      <point x="83" y="500" type="line" smooth="yes"/>
      <point x="64.6666666667" y="500"/>
      <point x="60" y="482"/>
      <point x="60" y="460" type="curve"/>
      <point x="60" y="457"/>
      <point x="60" y="453"/>
    </contour>
  </outline>
</glyph>
<glyph name="minute" format="2">
  <advance width="300"/>
  <unicode hex="2032"/>
  <outline>
    <contour>
      <point x="71" y="432" type="curve" smooth="yes"/>
      <point x="82" y="432"/>
      <point x="96" y="434"/>
      <point x="111" y="449" type="curve" smooth="yes"/>
      <point x="160" y="498"/>
      <point x="247" y="657"/>
      <point x="247" y="724" type="curve" smooth="yes"/>
      <point x="247" y="747"/>
      <point x="235" y="755"/>
      <point x="214" y="755" type="curve" smooth="yes"/>
      <point x="195" y="755"/>
      <point x="181" y="752"/>
      <point x="167" y="747" type="curve"/>
      <point x="147" y="620"/>
      <point x="101" y="525"/>
      <point x="35" y="443" type="curve"/>
      <point x="48" y="435"/>
      <point x="60" y="432"/>
    </contour>
  </outline>
</glyph>
<glyph name="commercialminussign" format="2">
  <advance width="600"/>
  <unicode hex="2052"/>
  <outline>
    <contour>
      <point x="151" y="680" type="curve"/>
      <point x="90" y="680"/>
      <point x="50" y="633"/>
      <point x="50" y="564" type="curve" smooth="yes"/>
      <point x="50" y="560" type="line" smooth="yes"/>
      <point x="50" y="494"/>
      <point x="87" y="453"/>
      <point x="146" y="453" type="curve"/>
      <point x="208" y="453"/>
      <point x="247" y="496"/>
      <point x="247" y="562" type="curve" smooth="yes"/>
      <point x="247" y="566" type="line" smooth="yes"/>
      <point x="247" y="634"/>
      <point x="208" y="680"/>
    </contour>
    <contour>
      <point x="454" y="247" type="curve"/>
      <point x="394" y="247"/>
      <point x="354" y="200"/>
      <point x="354" y="131" type="curve" smooth="yes"/>
      <point x="354" y="128" type="line" smooth="yes"/>
      <point x="354" y="61"/>
      <point x="390" y="20"/>
      <point x="450" y="20" type="curve"/>
      <point x="511" y="20"/>
      <point x="551" y="63"/>
      <point x="551" y="129" type="curve" smooth="yes"/>
      <point x="551" y="133" type="line" smooth="yes"/>
      <point x="551" y="201"/>
      <point x="511" y="247"/>
    </contour>
    <contour>
      <point x="334" y="381" type="curve"/>
      <point x="343" y="377"/>
      <point x="353" y="376"/>
      <point x="364" y="376" type="curve" smooth="yes"/>
      <point x="375" y="376"/>
      <point x="381" y="379"/>
      <point x="387" y="385" type="curve" smooth="yes"/>
      <point x="453" y="453"/>
      <point x="530" y="625"/>
      <point x="530" y="683" type="curve" smooth="yes"/>
      <point x="530" y="701"/>
      <point x="523" y="706"/>
      <point x="510" y="706" type="curve" smooth="yes"/>
      <point x="497" y="706"/>
      <point x="485" y="704"/>
      <point x="476" y="701" type="curve"/>
      <point x="456" y="594"/>
      <point x="400" y="477"/>
    </contour>
    <contour>
      <point x="266" y="318" type="curve"/>
      <point x="257" y="322"/>
      <point x="247" y="323"/>
      <point x="236" y="323" type="curve" smooth="yes"/>
      <point x="225" y="323"/>
      <point x="219" y="320"/>
      <point x="213" y="314" type="curve" smooth="yes"/>
      <point x="142" y="237"/>
      <point x="70" y="71"/>
      <point x="70" y="16" type="curve" smooth="yes"/>
      <point x="70" y="-2"/>
      <point x="77" y="-7"/>
      <point x="90" y="-7" type="curve" smooth="yes"/>
      <point x="103" y="-7"/>
      <point x="115" y="-5"/>
      <point x="124" y="-2" type="curve"/>
      <point x="145" y="100"/>
      <point x="200" y="222"/>
    </contour>
  </outline>
</glyph>
<glyph name="emptyset" format="2">
  <advance width="650"/>
  <unicode hex="2205"/>
  <outline>
    <contour>
      <point x="330" y="652" type="curve" smooth="yes"/>
      <point x="139" y="652"/>
      <point x="15" y="512"/>
      <point x="15" y="351" type="curve" smooth="yes"/>
      <point x="15" y="342" type="line" smooth="yes"/>
      <point x="15" y="161"/>
      <point x="128" y="34"/>
      <point x="320" y="34" type="curve" smooth="yes"/>
      <point x="507" y="34"/>
      <point x="635" y="168"/>
      <point x="635" y="343" type="curve" smooth="yes"/>
      <point x="635" y="350" type="line" smooth="yes"/>
      <point x="635" y="512"/>
      <point x="521" y="652"/>
    </contour>
    <contour>
      <point x="65" y="337" type="curve" smooth="yes"/>
      <point x="65" y="355" type="line" smooth="yes"/>
      <point x="65" y="489"/>
      <point x="169" y="602"/>
      <point x="325" y="602" type="curve" smooth="yes"/>
      <point x="394" y="602"/>
      <point x="449" y="589"/>
      <point x="487" y="565" type="curve"/>
      <point x="556" y="508"/>
      <point x="585" y="441"/>
      <point x="585" y="354" type="curve" smooth="yes"/>
      <point x="585" y="337" type="line" smooth="yes"/>
      <point x="585" y="176"/>
      <point x="462" y="84"/>
      <point x="326" y="84" type="curve" smooth="yes"/>
      <point x="254" y="84"/>
      <point x="211" y="94"/>
      <point x="170" y="119" type="curve"/>
      <point x="108" y="166"/>
      <point x="65" y="231"/>
    </contour>
    <contour>
      <point x="562" y="727" type="curve"/>
      <point x="550" y="731"/>
      <point x="543" y="732"/>
      <point x="533" y="732" type="curve" smooth="yes"/>
      <point x="516" y="732"/>
      <point x="505" y="724"/>
      <point x="495" y="693" type="curve" smooth="yes"/>
      <point x="420" y="463"/>
      <point x="215" y="144"/>
      <point x="44" y="-6" type="curve"/>
      <point x="51" y="-14"/>
      <point x="64" y="-19"/>
      <point x="78" y="-19" type="curve" smooth="yes"/>
      <point x="94" y="-19"/>
      <point x="100" y="-16"/>
      <point x="117" y="0" type="curve" smooth="yes"/>
      <point x="269" y="148"/>
      <point x="474" y="451"/>
    </contour>
  </outline>
</glyph>
<glyph name="equivalence" format="2">
  <advance width="600"/>
  <unicode hex="2261"/>
  <outline>
    <contour>
      <point x="62" y="600" type="line"/>
      <point x="61" y="595"/>
      <point x="60" y="588"/>
      <point x="60" y="580" type="curve"/>
      <point x="60" y="562"/>
      <point x="77" y="550"/>
      <point x="103" y="550" type="curve" smooth="yes"/>
      <point x="540" y="550" type="line"/>
      <point x="540" y="553"/>
      <point x="540" y="557"/>
      <point x="540" y="560" type="curve" smooth="yes"/>
      <point x="540" y="588"/>
      <point x="530" y="600"/>
      <point x="507" y="600" type="curve"/>
    </contour>
    <contour>
      <point x="60" y="325" type="line"/>
      <point x="60" y="322"/>
      <point x="60" y="318"/>
      <point x="60" y="315" type="curve" smooth="yes"/>
      <point x="60" y="287"/>
      <point x="70" y="275"/>
      <point x="93" y="275" type="curve"/>
      <point x="538" y="275" type="line"/>
      <point x="539" y="281"/>
      <point x="540" y="288"/>
      <point x="540" y="295" type="curve"/>
      <point x="540" y="313"/>
      <point x="523" y="325"/>
      <point x="497" y="325" type="curve" smooth="yes"/>
    </contour>
    <contour>
      <point x="62" y="50" type="line"/>
      <point x="61" y="45"/>
      <point x="60" y="38"/>
      <point x="60" y="30" type="curve"/>
      <point x="60" y="12"/>
      <point x="77" y="0"/>
      <point x="103" y="0" type="curve" smooth="yes"/>
      <point x="540" y="0" type="line"/>
      <point x="540" y="3"/>
      <point x="540" y="7"/>
      <point x="540" y="10" type="curve" smooth="yes"/>
      <point x="540" y="38"/>
      <point x="530" y="50"/>
      <point x="507" y="50" type="curve"/>
    </contour>
  </outline>
</glyph>
<glyph name="f_f_i" format="2">
  <advance width="1100"/>
  <unicode hex="FB03"/>
  <outline>
    <contour>
      <point x="210" y="60" type="curve" smooth="yes"/>
      <point x="210" y="213"/>
      <point x="210" y="367"/>
      <point x="210" y="520" type="curve"/>
      <point x="210" y="595"/>
      <point x="218" y="648"/>
      <point x="235" y="677" type="curve"/>
      <point x="267" y="700"/>
      <point x="305" y="710"/>
      <point x="370" y="710" type="curve" smooth="yes"/>
      <point x="414" y="710"/>
      <point x="462" y="698"/>
      <point x="501" y="675" type="curve"/>
      <point x="507" y="675" type="line"/>
      <point x="509" y="680"/>
      <point x="510" y="689"/>
      <point x="510" y="696" type="curve" smooth="yes"/>
      <point x="510" y="713"/>
      <point x="507" y="721"/>
      <point x="500" y="728" type="curve" smooth="yes"/>
      <point x="484" y="744"/>
      <point x="434" y="760"/>
      <point x="370" y="760" type="curve" smooth="yes"/>
      <point x="227" y="760"/>
      <point x="160" y="696"/>
      <point x="160" y="526" type="curve" smooth="yes"/>
      <point x="160" y="382"/>
      <point x="160" y="240"/>
      <point x="160" y="96" type="curve" smooth="yes"/>
      <point x="160" y="48"/>
      <point x="158" y="32"/>
      <point x="151" y="0" type="curve"/>
      <point x="155" y="-2"/>
      <point x="163" y="-4"/>
      <point x="170" y="-4" type="curve" smooth="yes"/>
      <point x="193" y="-4"/>
      <point x="210" y="12"/>
    </contour>
    <contour>
      <point x="580" y="60" type="curve" smooth="yes"/>
      <point x="580" y="213"/>
      <point x="580" y="367"/>
      <point x="580" y="520" type="curve"/>
      <point x="580" y="595"/>
      <point x="588" y="648"/>
      <point x="605" y="677" type="curve"/>
      <point x="637" y="700"/>
      <point x="665" y="710"/>
      <point x="710" y="710" type="curve" smooth="yes"/>
      <point x="763" y="710"/>
      <point x="802" y="698"/>
      <point x="841" y="675" type="curve"/>
      <point x="847" y="675" type="line"/>
      <point x="849" y="680"/>
      <point x="850" y="689"/>
      <point x="850" y="696" type="curve" smooth="yes"/>
      <point x="850" y="713"/>
      <point x="845" y="721"/>
      <point x="838" y="728" type="curve" smooth="yes"/>
      <point x="822" y="744"/>
      <point x="779" y="760"/>
      <point x="721" y="760" type="curve" smooth="yes"/>
      <point x="599" y="760"/>
      <point x="530" y="696"/>
      <point x="530" y="526" type="curve" smooth="yes"/>
      <point x="530" y="382"/>
      <point x="530" y="240"/>
      <point x="530" y="96" type="curve" smooth="yes"/>
      <point x="530" y="48"/>
      <point x="528" y="32"/>
      <point x="521" y="0" type="curve"/>
      <point x="525" y="-2"/>
      <point x="533" y="-4"/>
      <point x="540" y="-4" type="curve" smooth="yes"/>
      <point x="563" y="-4"/>
      <point x="580" y="12"/>
    </contour>
    <contour>
      <point x="914" y="476" type="line"/>
      <point x="914" y="479"/>
      <point x="914" y="483"/>
      <point x="914" y="486" type="curve" smooth="yes"/>
      <point x="914" y="508"/>
      <point x="895" y="526"/>
      <point x="843" y="526" type="curve" smooth="yes"/>
      <point x="35" y="526" type="line"/>
      <point x="35" y="523"/>
      <point x="35" y="519"/>
      <point x="35" y="516" type="curve" smooth="yes"/>
      <point x="35" y="494"/>
      <point x="40" y="476"/>
      <point x="58" y="476" type="curve" smooth="yes"/>
    </contour>
    <contour>
      <point x="891" y="754" type="curve"/>
      <point x="891" y="702" type="line" smooth="yes"/>
      <point x="891" y="680"/>
      <point x="910" y="667"/>
      <point x="941" y="667" type="curve" smooth="yes"/>
      <point x="953" y="667"/>
      <point x="963" y="668"/>
      <point x="971" y="670" type="curve"/>
      <point x="971" y="722" type="line" smooth="yes"/>
      <point x="971" y="744"/>
      <point x="953" y="757"/>
      <point x="921" y="757" type="curve" smooth="yes"/>
      <point x="909" y="757"/>
      <point x="899" y="756"/>
    </contour>
    <contour>
      <point x="909" y="532" type="curve"/>
      <point x="909" y="501"/>
      <point x="909" y="463"/>
      <point x="909" y="422" type="curve" smooth="yes"/>
      <point x="909" y="307"/>
      <point x="909" y="166"/>
      <point x="909" y="80" type="curve" smooth="yes"/>
      <point x="909" y="15"/>
      <point x="934" y="-2"/>
      <point x="958" y="-2" type="curve" smooth="yes"/>
      <point x="963" y="-2"/>
      <point x="968" y="-1"/>
      <point x="973" y="0" type="curve"/>
      <point x="961" y="42"/>
      <point x="959" y="77"/>
      <point x="959" y="124" type="curve" smooth="yes"/>
      <point x="959" y="244"/>
      <point x="959" y="393"/>
      <point x="959" y="513" type="curve" smooth="yes"/>
      <point x="959" y="528"/>
      <point x="947" y="536"/>
      <point x="932" y="536" type="curve" smooth="yes"/>
      <point x="922" y="536"/>
      <point x="914" y="534"/>
    </contour>
  </outline>
</glyph>
<glyph name="acutecomb.case" format="2">
  <anchor x="0" y="711" name="_top"/>
  <anchor x="0" y="708" name="_dot"/>
  <anchor x="-110" y="848" name="dot"/>
  <outline>
    <contour>
      <point x="92" y="926" type="curve"/>
      <point x="77" y="876"/>
      <point x="33" y="833"/>
      <point x="-31" y="792" type="curve"/>
      <point x="-22" y="783"/>
      <point x="-11" y="781"/>
      <point x="-2" y="781" type="curve" smooth="yes"/>
      <point x="8" y="781"/>
      <point x="22" y="785"/>
      <point x="36" y="792" type="curve" smooth="yes"/>
      <point x="83" y="817"/>
      <point x="122" y="857"/>
      <point x="137" y="895" type="curve" smooth="yes"/>
      <point x="141" y="904"/>
      <point x="139" y="915"/>
      <point x="126" y="920" type="curve" smooth="yes"/>
      <point x="114" y="925"/>
      <point x="106" y="926"/>
    </contour>
  </outline>
</glyph>
<glyph name="acutecombviet.case" format="2">
  <anchor x="0" y="712" name="_top"/>
  <anchor x="0" y="711" name="_side"/>
  <outline>
    <contour>
      <point x="68" y="935" type="curve"/>
      <point x="54" y="883"/>
      <point x="20" y="836"/>
      <point x="-31" y="802" type="curve"/>
      <point x="-22" y="794"/>
      <point x="-14" y="791"/>
      <point x="-2" y="791" type="curve" smooth="yes"/>
      <point x="10" y="791"/>
      <point x="20" y="796"/>
      <point x="33" y="806" type="curve" smooth="yes"/>
      <point x="67" y="833"/>
      <point x="94" y="867"/>
      <point x="106" y="902" type="curve" smooth="yes"/>
      <point x="110" y="914"/>
      <point x="110" y="926"/>
      <point x="100" y="930" type="curve" smooth="yes"/>
      <point x="90" y="934"/>
      <point x="79" y="935"/>
    </contour>
  </outline>
</glyph>
<glyph name="braceleft.case" format="2">
  <advance width="600"/>
  <outline>
    <contour>
      <point x="340" y="144" type="curve" smooth="yes"/>
      <point x="340" y="231"/>
      <point x="297" y="296"/>
      <point x="223" y="327" type="curve"/>
      <point x="223" y="333" type="line"/>
      <point x="297" y="360"/>
      <point x="340" y="426"/>
      <point x="340" y="514" type="curve" smooth="yes"/>
      <point x="340" y="597"/>
      <point x="281" y="671"/>
      <point x="281" y="708" type="curve" smooth="yes"/>
      <point x="281" y="713"/>
      <point x="282" y="718"/>
      <point x="283" y="723" type="curve"/>
      <point x="303" y="755"/>
      <point x="366" y="771"/>
      <point x="437" y="771" type="curve" smooth="yes"/>
      <point x="460" y="771"/>
      <point x="472" y="769"/>
      <point x="490" y="763" type="curve"/>
      <point x="496" y="763" type="line"/>
      <point x="499" y="769"/>
      <point x="500" y="775"/>
      <point x="500" y="784" type="curve" smooth="yes"/>
      <point x="500" y="805"/>
      <point x="487" y="820"/>
      <point x="450" y="820" type="curve" smooth="yes"/>
      <point x="445" y="820" type="line" smooth="yes"/>
      <point x="322" y="820"/>
      <point x="231" y="784"/>
      <point x="231" y="708" type="curve" smooth="yes"/>
      <point x="231" y="704" type="line" smooth="yes"/>
      <point x="231" y="642"/>
      <point x="290" y="589"/>
      <point x="290" y="507" type="curve" smooth="yes"/>
      <point x="290" y="429"/>
      <point x="235" y="354"/>
      <point x="123" y="354" type="curve" smooth="yes"/>
      <point x="110" y="354" type="line"/>
      <point x="108" y="350"/>
      <point x="107" y="343"/>
      <point x="107" y="338" type="curve" smooth="yes"/>
      <point x="107" y="320"/>
      <point x="112" y="304"/>
      <point x="128" y="304" type="curve" smooth="yes"/>
      <point x="130" y="304" type="line" smooth="yes"/>
      <point x="235" y="304"/>
      <point x="290" y="227"/>
      <point x="290" y="151" type="curve" smooth="yes"/>
      <point x="290" y="69"/>
      <point x="231" y="11"/>
      <point x="231" y="-51" type="curve" smooth="yes"/>
      <point x="231" y="-53" type="line" smooth="yes"/>
      <point x="231" y="-139"/>
      <point x="329" y="-162"/>
      <point x="440" y="-162" type="curve" smooth="yes"/>
      <point x="446" y="-162" type="line" smooth="yes"/>
      <point x="489" y="-162"/>
      <point x="500" y="-149"/>
      <point x="500" y="-128" type="curve" smooth="yes"/>
      <point x="500" y="-117"/>
      <point x="499" y="-110"/>
      <point x="497" y="-104" type="curve"/>
      <point x="491" y="-104" type="line"/>
      <point x="476" y="-110"/>
      <point x="463" y="-112"/>
      <point x="443" y="-112" type="curve" smooth="yes"/>
      <point x="361" y="-112"/>
      <point x="310" y="-103"/>
      <point x="283" y="-72" type="curve"/>
      <point x="281" y="-66"/>
      <point x="281" y="-59"/>
      <point x="281" y="-51" type="curve" smooth="yes"/>
      <point x="281" y="-14"/>
      <point x="340" y="61"/>
    </contour>
  </outline>
</glyph>
<glyph name="dotlessi.italic" format="2">
  <advance width="350"/>
  <anchor x="169" y="537" name="top"/>
  <anchor x="186" y="0" name="bottom"/>
  <anchor x="290" y="5" name="ogonek"/>
  <anchor x="170" y="584" name="hook"/>
  <outline>
    <contour>
      <point x="33" y="525" type="curve"/>
      <point x="31" y="520"/>
      <point x="30" y="514"/>
      <point x="30" y="507" type="curve" smooth="yes"/>
      <point x="30" y="488"/>
      <point x="38" y="475"/>
      <point x="53" y="475" type="curve" smooth="yes"/>
      <point x="65" y="475"/>
      <point x="89" y="486"/>
      <point x="139" y="493" type="curve"/>
      <point x="143" y="490" type="line"/>
      <point x="143" y="376"/>
      <point x="143" y="263"/>
      <point x="143" y="149" type="curve" smooth="yes"/>
      <point x="143" y="42"/>
      <point x="180" y="-11"/>
      <point x="243" y="-11" type="curve" smooth="yes"/>
      <point x="269" y="-11"/>
      <point x="292" y="-3"/>
      <point x="305" y="10" type="curve" smooth="yes"/>
      <point x="316" y="21"/>
      <point x="321" y="36"/>
      <point x="321" y="53" type="curve" smooth="yes"/>
      <point x="321" y="61"/>
      <point x="320" y="69"/>
      <point x="319" y="74" type="curve"/>
      <point x="313" y="74" type="line"/>
      <point x="294" y="53"/>
      <point x="274" y="39"/>
      <point x="246" y="39" type="curve" smooth="yes"/>
      <point x="230" y="39"/>
      <point x="218" y="41"/>
      <point x="206" y="53" type="curve"/>
      <point x="195" y="78"/>
      <point x="193" y="106"/>
      <point x="193" y="161" type="curve" smooth="yes"/>
      <point x="193" y="278"/>
      <point x="193" y="395"/>
      <point x="193" y="512" type="curve" smooth="yes"/>
      <point x="193" y="530"/>
      <point x="173" y="535"/>
      <point x="146" y="535" type="curve" smooth="yes"/>
      <point x="119" y="535"/>
      <point x="84" y="532"/>
    </contour>
  </outline>
</glyph>
<glyph name="dotlessj.italic" format="2">
  <advance width="350"/>
  <anchor x="284" y="537" name="top"/>
  <outline>
    <contour>
      <point x="65" y="461" type="curve"/>
      <point x="63" y="456"/>
      <point x="63" y="449"/>
      <point x="64" y="442" type="curve" smooth="yes"/>
      <point x="66" y="426"/>
      <point x="75" y="415"/>
      <point x="89" y="415" type="curve" smooth="yes"/>
      <point x="126" y="415"/>
      <point x="196" y="480"/>
      <point x="257" y="495" type="curve"/>
      <point x="260" y="492" type="line"/>
      <point x="260" y="337"/>
      <point x="260" y="182"/>
      <point x="260" y="27" type="curve" smooth="yes"/>
      <point x="260" y="-96"/>
      <point x="233" y="-152"/>
      <point x="174" y="-152" type="curve" smooth="yes"/>
      <point x="155" y="-152"/>
      <point x="129" y="-143"/>
      <point x="117" y="-132" type="curve"/>
      <point x="67" y="-56"/>
      <point x="79" y="112"/>
      <point x="190" y="168" type="curve"/>
      <point x="190" y="174" type="line"/>
      <point x="185" y="175"/>
      <point x="179" y="176"/>
      <point x="171" y="176" type="curve" smooth="yes"/>
      <point x="143" y="176"/>
      <point x="122" y="168"/>
      <point x="100" y="146" type="curve" smooth="yes"/>
      <point x="68" y="114"/>
      <point x="40" y="54"/>
      <point x="40" y="-16" type="curve" smooth="yes"/>
      <point x="40" y="-76"/>
      <point x="58" y="-121"/>
      <point x="91" y="-154" type="curve" smooth="yes"/>
      <point x="121" y="-184"/>
      <point x="156" y="-200"/>
      <point x="192" y="-200" type="curve"/>
      <point x="266" y="-200"/>
      <point x="310" y="-115"/>
      <point x="310" y="27" type="curve" smooth="yes"/>
      <point x="310" y="183"/>
      <point x="310" y="340"/>
      <point x="310" y="496" type="curve" smooth="yes"/>
      <point x="310" y="516"/>
      <point x="287" y="536"/>
      <point x="265" y="536" type="curve" smooth="yes"/>
      <point x="224" y="536"/>
      <point x="124" y="498"/>
    </contour>
  </outline>
</glyph>
<glyph name="slashcomb.case" format="2">
  <anchor x="0" y="408" name="_slash"/>
  <outline>
    <contour>
      <point x="201" y="538" type="curve"/>
      <point x="16" y="440" type="line" smooth="yes"/>
      <point x="4" y="434"/>
      <point x="-7" y="436"/>
      <point x="-18" y="430" type="curve" smooth="yes"/>
      <point x="-107" y="384" type="line" smooth="yes"/>
      <point x="-128" y="373"/>
      <point x="-136" y="363"/>
      <point x="-136" y="341" type="curve" smooth="yes"/>
      <point x="-136" y="332"/>
      <point x="-135" y="323"/>
      <point x="-133" y="314" type="curve"/>
      <point x="-19" y="375" type="line" smooth="yes"/>
      <point x="-6" y="382"/>
      <point x="6" y="379"/>
      <point x="19" y="386" type="curve" smooth="yes"/>
      <point x="166" y="463" type="line" smooth="yes"/>
      <point x="195" y="478"/>
      <point x="204" y="490"/>
      <point x="204" y="516" type="curve" smooth="yes"/>
      <point x="204" y="523"/>
      <point x="203" y="531"/>
    </contour>
  </outline>
</glyph>
<glyph name="slashcomb" format="2">
  <anchor x="0" y="408" name="_slash"/>
  <outline>
    <contour>
      <point x="133" y="503" type="curve"/>
      <point x="16" y="440" type="line" smooth="yes"/>
      <point x="4" y="433"/>
      <point x="-7" y="436"/>
      <point x="-18" y="430" type="curve" smooth="yes"/>
      <point x="-107" y="384" type="line" smooth="yes"/>
      <point x="-128" y="373"/>
      <point x="-136" y="363"/>
      <point x="-136" y="341" type="curve" smooth="yes"/>
      <point x="-136" y="332"/>
      <point x="-135" y="323"/>
      <point x="-133" y="314" type="curve"/>
      <point x="-19" y="375" type="line" smooth="yes"/>
      <point x="-6" y="382"/>
      <point x="6" y="379"/>
      <point x="19" y="386" type="curve" smooth="yes"/>
      <point x="98" y="428" type="line" smooth="yes"/>
      <point x="127" y="444"/>
      <point x="136" y="455"/>
      <point x="136" y="481" type="curve" smooth="yes"/>
      <point x="136" y="488"/>
      <point x="135" y="496"/>
    </contour>
  </outline>
</glyph>
